<?xml version="1.0" encoding="utf-8"?>
<!-- Generator: Adobe Illustrator 23.0.5, SVG Export Plug-In . SVG Version: 6.00 Build 0)  -->
<svg version="1.1" id="Layer_1" xmlns="http://www.w3.org/2000/svg" xmlns:xlink="http://www.w3.org/1999/xlink" x="0px" y="0px"
	 viewBox="0 0 2004.1 741.6" style="enable-background:new 0 0 2004.1 741.6;" xml:space="preserve">
<style type="text/css">
	.st0{fill-rule:evenodd;clip-rule:evenodd;fill:#FCD21C;stroke:#ED1B23;stroke-width:12;stroke-miterlimit:10;}
	.st1{fill:#ED1B23;}
	.st2{fill-rule:evenodd;clip-rule:evenodd;fill:#ED1B23;}
</style>
<g>
	<rect x="6" y="6" class="st0" width="1992.1" height="729.6"/>
	<path class="st1" d="M284.9,101.7v14.6c-5,1.4-9.1,3.1-12,4.6c-2.9,1.9-5.3,4.1-7,7.2c-1.4,2.9-2.6,6.5-3.1,11.3
		c-0.5,4.6-0.7,10.3-0.7,17.5v219.3h41c8.2,0,14.6-1.2,19.4-3.8c5-2.9,9.1-7,12.7-12.5c3.6-5.3,6.7-12.5,9.4-21.4
		c2.6-8.9,4.8-17.3,6.2-25.2h28.8l-4.6,89H174.3v-14.4c5.3-1.7,9.4-3.1,12.2-5c3.1-1.7,5.3-4.1,6.7-7c1.4-3.1,2.4-7,2.9-11.5
		c0.5-4.6,0.7-10.6,0.7-17.5V157.1c0-6.7-0.2-12.7-0.7-17.3c-0.2-4.8-1.2-8.4-2.6-11.5c-1.4-2.9-3.6-5.3-6.7-7.2
		c-2.9-1.7-7.2-3.4-12.5-4.8v-14.6H284.9z M522.4,330.7h-69.1l-5.3,16.1c-1.7,4.6-2.9,8.9-3.8,13c-1,4.3-1.4,8.9-1.4,13.4
		c0,11.3,5.8,17,17,18v11h-69.3v-11c4.1-0.5,7.4-1.9,10.6-4.6c3.1-2.4,5.8-5.8,8.2-10.1c2.6-4.3,5.3-10.6,8.2-18.5L484.7,170h43.2
		l53.5,189.5c2.4,8.6,4.6,14.6,6,18.2c1.7,3.4,3.8,6.2,6.5,8.6c2.4,2.2,6.2,3.6,10.8,4.8v11h-89.5v-11c5.8-0.7,9.8-2.4,12.5-5
		c2.6-2.6,4.1-6.2,4.1-11c0-3.4-0.2-7.2-1.2-11.5c-0.7-4.3-1.9-9.8-3.6-16.3L522.4,330.7z M459.5,310.8h58.3l-25.9-95.2L459.5,310.8
		z M860.9,229.3c1.7-5.3,2.9-10.3,4.1-15.6c1-5.3,1.4-9.8,1.4-13.4c0-6-1.2-10.3-4.1-13c-2.6-2.9-7-4.3-12.2-5v-11h67.4v11
		c-4.1,1-7.2,2.6-10.1,5c-2.6,2.2-5,5.5-7.2,9.6c-2.2,4.3-4.8,11.3-8.2,21.1l-60.7,185.4h-38.6l-36.5-158.8l-43.7,158.8h-40.3
		l-48.9-189.5c-2.2-9.4-4.3-15.8-6.2-19.4c-1.9-3.6-3.8-6.2-6-7.9c-2.4-1.9-5.3-3.4-8.6-4.3v-11h87.1v11c-5.5,1-9.8,2.4-12.5,5
		c-2.6,2.6-4.1,6.2-4.1,11c0,6,1.7,15.4,4.8,27.8l28.1,117.8l46.3-172.7h36.7l37.9,172.7L860.9,229.3z M1077.7,347.3
		c0,9.6,0.2,16.6,1,20.4c0.7,4.1,1.9,7.4,3.4,9.8c1.7,2.4,4.1,4.3,7,6c3.1,1.7,7.9,3.1,14.2,4.3v14.4H989.7v-14.4
		c5.3-1.7,9.4-3.1,12.5-4.8c2.9-1.7,5.3-4.1,6.7-7c1.4-3.1,2.4-7,2.9-11.5c0.2-4.8,0.5-10.6,0.5-17.5v-190c0-6.7-0.2-12.7-0.5-17.3
		c-0.2-4.8-1.2-8.4-2.9-11.5c-1.4-2.9-3.6-5.3-6.5-7.2c-3.1-1.7-7.4-3.4-12.7-4.8v-14.6H1112c35.7,0,62.4,6.7,80.1,19.9
		c17.5,13.4,26.4,33.8,26.4,61.4c0,19.4-4.1,36.5-12.5,50.9c-8.2,14.4-20.2,25.2-36,32.6c-15.8,7.4-35.3,11.3-59,11.3
		c-13.7,0-24.7-0.5-33.3-1V347.3z M1077.7,251.8h18c14.2,0,25.2-2.2,33.6-6.2c8.2-4.1,14.4-10.8,18.5-19.9c3.8-9.1,6-21.4,6-36.7
		s-2.2-27.6-6-36.5c-4.1-9.1-9.8-15.6-17.8-19.2c-7.7-3.8-17.5-5.8-29.7-5.8c-9.6,0-17.3,0-22.5,0.5V251.8z M1332.5,402.2h-85.2v-11
		c4.1-1.2,7.2-2.4,9.6-3.8c2.2-1.2,4.1-2.9,5-5.3c1.2-2.4,1.9-5.3,2.2-8.9c0.5-3.6,0.5-7.9,0.5-13.4V213.9c0-5.3,0-9.8-0.2-13.4
		c-0.2-3.6-1-6.5-2.2-8.9c-1.2-2.2-2.9-4.1-5.3-5.5c-2.2-1.2-5.5-2.6-9.6-3.8v-11h94.5c12.7,0,23.5,1,32.4,2.9
		c8.9,1.7,16.8,4.6,23.5,8.4c5.5,3.4,10.3,7.2,14.2,12c4.1,4.8,7,10.3,9.1,16.8c2.2,6.2,3.1,13.7,3.1,22.3c0,11-1.9,20.4-5.5,28.3
		c-3.8,7.9-8.9,14.4-15.1,19.7c-6.2,5.3-14.9,10.3-25.4,14.9v1.7c7.9,3.6,14.6,8.4,19.9,14.6c5.3,6,9.8,13.4,14.2,22.8l10.1,23
		c4.6,10.3,9.1,18,13.7,23c4.6,5.3,9.8,8.4,15.8,9.6v11h-62.4c-6.2-8.9-13.2-22.3-21.1-40.3l-12.7-29c-3.6-8.4-7-14.6-9.6-18.2
		c-2.6-3.6-5.5-6-8.4-7.4c-2.9-1.2-7.2-1.9-13.2-1.9h-9.4v54.5c0,8.4,0.2,14.4,1.2,17.8c0.7,3.4,2.2,6.2,4.3,8.2
		c2.2,1.9,6,3.8,12,5.5V402.2z M1315,191.4v94h16.1c8.6,0,15.6-1.2,21.4-3.6c5.5-2.4,10.1-5.8,13.2-10.1c3.4-4.3,5.8-9.6,7-15.4
		c1.2-6,1.9-12.2,1.9-19.4c0-15.1-3.6-26.6-10.3-34.5c-7-7.4-17.3-11.3-30.9-11.3C1323.8,191.1,1317.9,191.1,1315,191.4L1315,191.4z
		 M1622.8,171.2V225h-22.1c-3.6-10.6-6.7-18-9.1-21.6c-2.6-3.8-5.5-6.7-8.9-9.1c-3.6-2.2-9.4-3.1-17.8-3.1h-35.3v81.1h21.4
		c4.8,0,8.4-0.7,11-1.9c2.9-1.4,5-3.8,7-7.2c1.7-3.1,3.4-8.4,5-15.1h18.2v68.6h-18.2c-1.4-6.5-3.4-11.5-5-14.9
		c-1.9-3.6-4.1-6-6.7-7.4c-2.4-1.4-6.2-2.2-11.3-2.2h-21.4v90.4h35c3.8,0,7-0.5,9.6-1c2.6-0.5,4.8-1.2,7-2.4c2.2-1.4,4.1-3.1,6-5.3
		c1.9-2.2,3.6-4.3,5-7c1.4-2.4,2.9-5.8,4.6-9.6c1.7-4.3,3.4-9.8,5.3-16.8h22.3l-3.1,61.7H1462v-11c4.1-1.2,7.2-2.4,9.6-3.8
		c2.2-1.2,4.1-2.9,5-5.3c1.2-2.4,1.9-5.3,2.2-8.9c0.5-3.6,0.5-7.9,0.5-13.4V213.9c0-5.3,0-9.8-0.2-13.4c-0.2-3.6-1-6.5-2.2-8.9
		c-1.2-2.2-2.9-4.1-5.3-5.5c-2.2-1.2-5.5-2.6-9.6-3.8v-11H1622.8z M1721.3,360c0,7.4,0.2,12.7,0.7,15.8c0.5,3.1,1.4,5.5,2.6,7.4
		c1.2,1.9,3.1,3.4,5.3,4.6c2.4,1.2,6,2.4,10.8,3.4v11h-87.1v-11c4.1-1.2,7.2-2.4,9.6-3.8c2.2-1.2,4.1-2.9,5-5.3
		c1.2-2.4,1.9-5.3,2.2-8.9c0.5-3.6,0.5-7.9,0.5-13.4V213.9c0-5.3,0-9.8-0.2-13.4c-0.2-3.6-1-6.5-2.2-8.9c-1.2-2.2-2.9-4.1-5.3-5.5
		c-2.2-1.2-5.5-2.6-9.6-3.8v-11h94.3c27.1,0,47.7,5,61.2,15.4c13.7,10.1,20.4,25.9,20.4,47.3c0,14.9-3.1,27.8-9.4,38.9
		c-6.5,11-15.6,19.4-27.8,25.2c-12,5.8-27.1,8.6-45.3,8.6c-10.6,0-19-0.2-25.7-0.7V360z M1721.3,286.6h13.9
		c10.8,0,19.2-1.4,25.7-4.8c6.5-3.1,11-8.4,14.2-15.4s4.6-16.3,4.6-28.1c0-12-1.4-21.1-4.6-28.1c-3.1-7-7.4-12-13.4-14.9
		c-6-2.9-13.7-4.3-22.8-4.3c-7.7,0-13.4,0-17.5,0.2V286.6z"/>
	<path class="st1" d="M541.6,606.9v-7.7c3.1-0.5,5.5-1.2,7.4-2.2c1.9-1,3.1-2.2,4.1-3.8c1-1.7,1.4-3.8,1.7-6.5
		c0.2-2.4,0.5-5.5,0.5-9.4V459.8h-9.1c-4.6,0-8.2,0.5-10.6,1.7c-2.4,1.2-4.6,2.9-6.2,5.3c-1.7,2.2-3.4,5.5-4.6,9.4
		c-1.2,4.1-2.4,7.7-3.1,11.3h-15.6v-41.3H639v41.3h-15.4c-1.4-5.3-2.6-9.4-3.6-11.8c-0.7-2.6-1.7-4.6-2.6-6.5
		c-1-1.7-2.2-3.1-3.1-4.3c-1.2-1.2-2.4-2.2-3.6-2.9c-1.4-0.7-2.9-1.2-4.8-1.7c-1.9-0.2-4.6-0.5-7.7-0.5H590v117.5
		c0,4.1,0.2,7.4,0.5,9.4c0.2,2.4,0.5,4.1,1.2,5.3c0.7,1.4,1.4,2.6,2.2,3.4c1,0.7,2.2,1.4,3.6,2.2c1.7,0.7,3.6,1.2,6.2,1.7v7.7H541.6
		z M669.9,490h43.9v65.5c0,7.4,0.2,13.4,0.7,17.5c0.5,4.3,1.2,7.7,2.6,10.1c1.2,2.6,2.6,4.3,4.6,5.5c1.9,1.2,4.3,1.7,7.2,1.7
		c2.6,0,5.5-1,8.6-2.6c3.1-1.9,5.8-4.3,7.9-7.7c2.2-3.1,3.1-6.7,3.1-10.3v-45.6c0-5.8,0-10.1-0.2-12.7c-0.2-2.9-0.7-5-1.4-6.7
		c-0.5-1.4-1.4-2.9-2.9-3.8c-1.4-1.2-3.6-2.2-6.7-3.1V490h44.1v82.5c0,6,0,10.3,0.2,13c0.2,2.9,0.5,5,1.2,6.7s1.9,2.9,3.4,4.1
		c1.4,1,4.1,1.9,7.4,2.6v7.9l-30.7,1.2h-13.4l1-17l-1.4-0.2c-7,6.7-13.2,11.3-18.7,13.9c-5.5,2.9-11,4.1-16.6,4.1
		c-7.9,0-14.4-1.4-19.2-4.6c-4.8-3.1-8.2-7.7-10.3-13.7c-2.2-6-3.1-13.9-3.1-23.3v-43.2c0-4.3,0-7.9-0.2-10.1c0-2.4-0.2-4.3-0.5-5.5
		c-0.2-1.4-0.5-2.6-1-3.6c-0.5-1-1-1.9-1.7-2.9c-0.7-1-1.7-1.7-2.9-2.4c-1.2-0.7-2.9-1.2-5-1.9V490z M909.3,592.7
		c-6.5,6-12.5,10.1-18,12.5c-5.3,2.4-11,3.6-17,3.6c-11.3,0-19.7-3.1-25.2-9.4c-5.5-6.5-8.2-16.1-8.2-28.8v-66h-14.2v-8.2
		c4.6-0.7,7.9-1.9,10.1-3.4c2.2-1.7,3.8-3.8,5-6.5c1.2-2.6,2.2-6,2.9-10.3c0.7-4.1,1.2-9.4,1.7-15.8h26.9V490h32.1v14.6h-32.1v53.3
		c0,8.9,0.5,15.4,1.2,19.7c1,4.3,2.2,7.4,4.1,9.4c1.9,1.9,4.3,3.1,7,3.1c2.2,0,4.1-0.2,5.8-0.7c1.7-0.2,3.4-1,5.3-2.2
		c1.7-1,3.6-2.4,5.8-4.3L909.3,592.7z M990.2,608.8c-11,0-20.6-1.9-28.8-6c-7.9-4.1-14.2-10.6-18.7-19.4s-6.7-20.4-6.7-34.1
		c0-10.6,1.4-19.7,4.1-27.3c2.9-7.7,6.7-14.2,11.8-19.2c4.8-5,10.8-8.6,17.8-11c6.7-2.4,14.4-3.6,22.3-3.6c18.2,0,31.9,5,41.3,15.1
		c9.1,9.8,13.9,24.7,13.9,43.9c0,13.7-2.4,25.2-7,34.3c-4.6,9.4-11,16.3-19.7,20.6C1012,606.6,1001.9,608.8,990.2,608.8L990.2,608.8
		z M970.3,546.6c0,16.8,1.7,29.3,5.3,37.4c3.6,8.4,8.9,12.5,16.3,12.5c3.8,0,7.2-1,9.8-3.1c2.6-2.2,4.8-5.3,6.5-9.1
		c1.7-4.1,2.9-8.9,3.4-14.6c0.7-5.5,1.2-11.8,1.2-19c0-16.8-1.9-29.5-5.5-37.7c-3.6-8.4-8.9-12.7-15.8-12.7c-5,0-9.1,1.7-12.2,5
		c-3.1,3.4-5.3,8.4-6.7,15.4C971,527.5,970.3,536.1,970.3,546.6L970.3,546.6z M1131,506.8l1.4,0.5c5.3-6.7,11-11.8,16.8-14.6
		c5.8-3.1,12.2-4.6,19-4.6c4.6,0,9.4,0.5,14.4,1.4v32.6h-20.4c-1.4-4.6-2.9-8.2-5-10.6c-2.2-2.4-4.8-3.6-8.4-3.6
		c-1.7,0-3.4,0.5-5.5,1.7c-1.9,1-3.8,2.4-5.5,4.3s-2.9,4.1-3.6,6c-0.7,1.9-1.2,4.1-1.2,6c-0.2,2.2-0.5,5-0.5,9.4v37.4
		c0,7.4,0.2,12.7,0.7,15.8c0.7,2.9,1.7,5.3,3.1,7c1.7,1.7,4.3,2.9,8.2,3.6v7.7h-55.7v-7.7c3.6-1,6.2-2.4,7.4-4.1
		c1.4-1.7,2.4-3.8,2.9-6.7c0.5-2.9,0.7-7.9,0.7-15.4v-48.5c0-5.8,0-10.1-0.2-13c-0.2-2.9-0.7-5-1.4-6.7s-1.7-3.1-3.1-4.1
		c-1.4-1.2-4.1-2.2-7.7-2.9V490l30.9-1h14.2L1131,506.8z M1260,443v28.8h-30.9V443H1260z M1217.1,599.2c3.8-1,6.2-2.4,7.7-4.1
		c1.4-1.7,2.4-3.8,2.9-6.7c0.5-2.9,0.7-7.9,0.7-15.4v-54.9c0-3.8-0.2-7-0.5-9.4c-0.5-2.2-1-4.1-1.9-5.5c-1-1.4-2.4-2.4-3.8-3.4
		c-1.7-0.7-3.8-1.2-6.2-1.9V490l30.9-1h14.2v83.7c0,4.6,0,7.9,0,10.3c0.2,2.4,0.5,4.1,0.7,5.5c0.2,1.2,0.5,2.4,1,3.4
		c0.2,1.2,1,2.2,1.4,2.9c0.7,1,1.7,1.7,3.1,2.4c1.2,0.7,2.9,1.4,5,1.9v7.7h-55.2V599.2z M1378.5,591.5l-1.7-0.5
		c-6.2,6.2-12.2,10.8-18,13.4c-5.8,2.9-12,4.3-18.7,4.3c-6.5,0-12-1.2-16.8-3.6c-4.8-2.6-8.4-6-10.8-10.3c-2.4-4.6-3.6-9.6-3.6-15.4
		c0-11.5,5.3-20.6,16.3-27.1c10.8-6.7,27.3-11,49.4-12.7v-11c0-7.4-0.7-13-2.4-17c-1.7-3.8-3.6-6.7-6-8.4c-2.6-1.7-5.5-2.4-9.1-2.4
		c-3.4,0-6.2,0.7-8.9,1.9s-4.8,3.6-7,7.2c-1.9,3.4-3.4,8.2-4.3,14.4h-21.4V503c7-3.1,12.7-5.8,17.3-7.4c4.6-1.7,9.1-3.1,13.7-4.3
		c4.3-1.2,8.4-1.9,12-2.4c3.4-0.5,7-0.7,10.6-0.7c9.1,0,16.3,1.2,21.8,3.8c5.5,2.4,9.6,6.5,12.2,12.2c2.6,5.5,4.1,13.4,4.1,23.5
		v45.8c0,5.3,0,9.4,0.2,12c0.2,2.9,0.7,5,1.2,6.5c0.5,1.2,1,2.4,1.7,3.1c1,1,1.7,1.7,2.9,2.2c1.2,0.5,3.1,1.2,6.2,1.9v7.7h-42
		L1378.5,591.5z M1374.7,551.2c-11.5,0.5-20.2,2.6-25.9,7c-5.5,4.3-8.4,10.3-8.4,18.7c0,4.8,1.4,8.4,3.8,11
		c2.6,2.6,6.2,3.8,10.8,3.8c3.4,0,6.7-1,9.6-2.9c3.1-1.9,5.8-4.6,7.4-7.7c1.9-3.4,2.6-6.7,2.6-10.3V551.2z M1499.4,572.8
		c0,7.4,0.2,12.7,0.7,15.6c0.5,2.6,1.4,5,2.9,6.7c1.4,1.7,3.8,3.1,7.9,4.1v7.7h-55.4v-7.7c2.2-0.5,4.1-1.2,5.3-1.9
		c1.2-0.7,2.4-1.7,3.1-2.6c0.7-1,1.2-2.2,1.7-3.8c0.5-1.4,1-3.6,1.2-6.2c0-2.6,0.2-6.7,0.2-11.8v-91.9c0-6.7-0.2-11.8-0.2-14.9
		c-0.2-3.1-0.5-6-0.7-8.2c-0.2-2.2-1-3.8-1.7-5c-0.7-1.4-1.9-2.4-3.4-3.1c-1.4-1-3.6-1.4-7-2.2v-7.7l31.4-1.7h13.9V572.8z"/>
	<rect x="169.3" y="508.5" class="st2" width="272.5" height="37.7"/>
	<rect x="1562.1" y="508.5" class="st2" width="272.5" height="37.7"/>
</g>
</svg>
